<svg width="66" height="66" viewBox="0 0 66 66" fill="none" xmlns="http://www.w3.org/2000/svg">
<path d="M33 1.5C50.397 1.5 64.5 15.603 64.5 33C64.5 50.397 50.397 64.5 33 64.5C15.603 64.5 1.5 50.397 1.5 33C1.5 15.603 15.603 1.5 33 1.5Z" fill="#00704A" stroke="white" stroke-width="3"/>
<path d="M42.0735 21.6865C40.8377 24.2519 38.5887 26.0037 36.0387 26.6905C34.9836 24.2684 34.9506 21.4197 36.1864 18.8521C37.4234 16.2845 39.6724 14.5327 42.2235 13.8469C43.2752 16.269 43.3094 19.1189 42.0735 21.6865Z" fill="white"/>
<path d="M47.5013 33.0406C44.7243 33.6745 41.9527 33.0075 39.8271 31.442C41.063 29.1081 43.269 27.3045 46.0483 26.6706C48.8265 26.0367 51.5992 26.7026 53.7247 28.2703C52.4866 30.6031 50.2806 32.4067 47.5013 33.0406Z" fill="white"/>
<path d="M42.0092 44.3629C39.7822 42.5869 38.5751 40.0038 38.4736 37.3667C41.0688 36.8772 43.8547 37.4781 46.0828 39.2552C48.3108 41.0324 49.518 43.6154 49.6183 46.2547C47.0221 46.7409 44.2373 46.1401 42.0092 44.364V44.3629Z" fill="white"/>
<path d="M29.8127 18.852C31.0485 21.4174 31.0154 24.2694 29.9626 26.6893C27.4115 26.0036 25.1625 24.254 23.9267 21.6864C22.6897 19.1187 22.7228 16.2678 23.7778 13.8457C26.3278 14.5336 28.5768 16.2832 29.8127 18.8508V18.852Z" fill="white"/>
<path d="M19.9508 26.6706C22.7279 27.3045 24.9361 29.1081 26.172 31.4398C24.0453 33.0064 21.276 33.6745 18.4967 33.0395C15.7185 32.4056 13.5103 30.602 12.2744 28.267C14.4022 26.7026 17.1726 26.0356 19.9508 26.6695V26.6706Z" fill="white"/>
<path d="M19.9156 39.2551C22.1425 37.4791 24.9295 36.8771 27.5236 37.3655C27.4233 40.0048 26.2172 42.5868 23.9892 44.3639C21.7611 46.1411 18.9741 46.743 16.3789 46.2535C16.4825 43.6142 17.6875 41.0323 19.9156 39.2562V39.2551Z" fill="white"/>
<path d="M31.3662 11.5363C31.3662 10.1119 32.0001 8.83526 32.9989 7.97314C33.9989 8.83526 34.6328 10.1119 34.6328 11.5363C34.6328 12.9607 33.9989 14.2384 32.9989 15.1005C31.999 14.2373 31.3662 12.9618 31.3662 11.5363Z" fill="white"/>
<path d="M14.9606 21.0106C13.8471 20.1231 13.2441 18.8311 13.1934 17.5125C14.4909 17.2678 15.8834 17.5688 16.9979 18.4562C18.1125 19.3448 18.7156 20.6358 18.7663 21.9554C17.4687 22.1991 16.0752 21.8981 14.9617 21.0095L14.9606 21.0106Z" fill="white"/>
<path d="M12.1394 39.7436C10.7514 40.06 9.36452 39.7271 8.30176 38.9443C8.91913 37.7768 10.0227 36.8761 11.4118 36.5586C12.8009 36.2411 14.1867 36.5751 15.2505 37.3579C14.6321 38.5243 13.5285 39.4261 12.1394 39.7425V39.7436Z" fill="white"/>
<path d="M25.0265 53.6291C24.4091 54.9123 23.2835 55.7877 22.0091 56.1305C21.4821 54.92 21.4645 53.4946 22.0829 52.2113C22.7014 50.927 23.8259 50.0516 25.1015 49.7087C25.6273 50.9203 25.645 52.3447 25.0265 53.628V53.6291Z" fill="white"/>
<path d="M43.9177 52.2113C44.5362 53.4946 44.5196 54.92 43.9927 56.1305C42.7171 55.7877 41.5926 54.9134 40.9741 53.6291C40.3557 52.3458 40.3722 50.9203 40.8992 49.7087C42.1747 50.0527 43.2981 50.927 43.9166 52.2113H43.9177Z" fill="white"/>
<path d="M54.5867 36.5564C55.9747 36.8728 57.0793 37.7746 57.6978 38.941C56.635 39.7249 55.2492 40.0578 53.8601 39.7414C52.4711 39.425 51.3664 38.5232 50.749 37.3557C51.8129 36.573 53.1976 36.24 54.5867 36.5564Z" fill="white"/>
<path d="M48.9999 18.4541C50.1134 17.5666 51.5069 17.2645 52.8034 17.5081C52.7538 18.8278 52.1507 20.1188 51.0361 21.0073C49.9227 21.8959 48.5292 22.1969 47.2305 21.9521C47.2823 20.6325 47.8842 19.3415 48.9988 18.453L48.9999 18.4541Z" fill="white"/>
<path d="M38.9434 62.9987L27.0557 62.9998C29.4127 62.9469 31.3133 61.0463 31.3652 58.6892H31.3663V32.9833C31.3663 31.5589 32.0002 30.2823 32.999 29.4202C34 30.2823 34.6328 31.5589 34.6328 32.9833V58.6892H34.6339C34.6858 61.0463 36.5864 62.9469 38.9434 62.9987Z" fill="white"/>
</svg>
