<svg width="48" height="48" viewBox="0 0 48 48" fill="none" xmlns="http://www.w3.org/2000/svg">
<rect x="1" y="1" width="46" height="46" rx="23" fill="#00704A"/>
<rect x="1" y="1" width="46" height="46" rx="23" stroke="white" stroke-width="2"/>
<path d="M30.4704 28.83L30.8604 31.99C30.9604 32.82 30.0704 33.4 29.3604 32.97L25.9004 30.91C25.6604 30.77 25.6004 30.47 25.7304 30.23C26.2304 29.31 26.5004 28.27 26.5004 27.23C26.5004 23.57 23.3604 20.59 19.5004 20.59C18.7104 20.59 17.9404 20.71 17.2204 20.95C16.8504 21.07 16.4904 20.73 16.5804 20.35C17.4904 16.71 20.9904 14 25.1704 14C30.0504 14 34.0004 17.69 34.0004 22.24C34.0004 24.94 32.6104 27.33 30.4704 28.83Z" fill="white"/>
<path d="M25 27.2301C25 28.4201 24.56 29.5201 23.82 30.3901C22.83 31.5901 21.26 32.3601 19.5 32.3601L16.89 33.9101C16.45 34.1801 15.89 33.8101 15.95 33.3001L16.2 31.3301C14.86 30.4001 14 28.9101 14 27.2301C14 25.4701 14.94 23.9201 16.38 23.0001C17.27 22.4201 18.34 22.0901 19.5 22.0901C22.54 22.0901 25 24.3901 25 27.2301Z" fill="white"/>
</svg>
