<svg width="48" height="48" viewBox="0 0 48 48" fill="none" xmlns="http://www.w3.org/2000/svg">
<rect x="1" y="1" width="46" height="46" rx="23" fill="#00704A"/>
<rect x="1" y="1" width="46" height="46" rx="23" stroke="white" stroke-width="2"/>
<path d="M31.2097 18.36C30.1697 16.26 28.1597 14.71 25.8297 14.2C23.3897 13.66 20.8897 14.24 18.9797 15.78C17.0597 17.31 15.9697 19.6 15.9697 22.05C15.9697 24.64 17.5197 27.35 19.8597 28.92V29.75C19.8497 30.03 19.8397 30.46 20.1797 30.81C20.5297 31.17 21.0497 31.21 21.4597 31.21H26.5897C27.1297 31.21 27.5397 31.06 27.8197 30.78C28.1997 30.39 28.1897 29.89 28.1797 29.62V28.92C31.2797 26.83 33.2297 22.42 31.2097 18.36Z" fill="white"/>
<path d="M27.2602 33.9999C27.2002 33.9999 27.1302 33.9899 27.0702 33.9699C25.0602 33.3999 22.9502 33.3999 20.9402 33.9699C20.5702 34.0699 20.1802 33.8599 20.0802 33.4899C19.9702 33.1199 20.1902 32.7299 20.5602 32.6299C22.8202 31.9899 25.2002 31.9899 27.4602 32.6299C27.8302 32.7399 28.0502 33.1199 27.9402 33.4899C27.8402 33.7999 27.5602 33.9999 27.2602 33.9999Z" fill="white"/>
</svg>
